<svg width="225" height="24" viewBox="0 0 225 24" fill="none" xmlns="http://www.w3.org/2000/svg">
<g clip-path="url(#clip0_1_2273)">
<path d="M116.009 5.43291C113.897 3.41611 102.636 4.61577 99.4123 4.58099L94.1865 18.716H100.943L103.562 12.625L106.18 18.716H113.373L111.191 13.5059C114.548 13.8073 118.354 7.67573 116.009 5.43291ZM104.219 11.3268L105.15 7.91335L108.822 8.27267C109.125 11.2283 106.646 11.5761 104.219 11.3268Z" fill="#3AC36C"/>
<path d="M167.441 4.37256C164.793 9.94774 164.95 20.8489 156.174 18.6466L152.624 11.7675L150.436 18.7162H143.459L148.673 4.5696L154.725 4.44789C155.377 4.84778 156.803 11.1648 158.281 11.7617L161.121 4.37256H167.441Z" fill="#3AC36C"/>
<path d="M186.406 6.12271C185.032 3.0975 172.829 4.79556 169.669 4.42466L164.828 18.7161H178.998C179.207 18.7161 182.321 17.0065 182.676 16.7341C184.136 15.6214 187.151 7.76281 186.406 6.12271ZM179.481 9.1711C179.382 9.70428 177.479 14.6014 177.264 14.8158C176.397 15.6967 173.929 15.065 172.678 15.2389C172.393 14.9839 174.953 8.26121 175.273 8.05258C175.826 7.67588 178.649 7.69326 179.231 8.05258C179.789 8.43508 179.574 8.67269 179.481 9.1711Z" fill="#3AC36C"/>
<path d="M42.7313 4.37256C41.3056 7.67015 40.3163 14.161 37.4706 16.2995C33.4262 19.3305 26.5419 19.2262 21.5605 18.7394C19.867 18.5771 19.0349 18.3337 19.1978 16.3806L23.766 4.37256H30.0859L26.6001 14.5725C26.7979 15.5983 30.8773 15.3491 31.8375 15.0303L35.7539 4.37256H42.7313Z" fill="#3AC36C"/>
<path d="M51.3094 7.83242L50.582 10.0231H59.3052L58.0133 12.8686L49.552 13.1294L48.8362 15.239H57.9959L56.8553 18.7452C53.2124 18.0729 42.9645 20.4027 41.2012 16.5255C40.3457 14.6536 44.6055 6.89356 44.9139 4.37256H61.9181L60.987 7.79185L51.3094 7.83242Z" fill="#3AC36C"/>
<path d="M135.906 7.83242L135.172 10.0231H143.896L142.604 12.8686L134.148 13.1294L133.432 15.239H142.586L141.451 18.7452C137.803 18.0729 127.555 20.4027 125.792 16.5255C124.942 14.6536 129.202 6.89356 129.504 4.37256H146.514L145.577 7.79185L135.906 7.83242Z" fill="#3AC36C"/>
<path d="M87.0462 7.82662L86.3362 10.0231H94.623L93.0401 13.0077L85.1025 13.141C83.7349 19.1393 81.0871 19.0407 75.4365 18.7104L80.6681 4.37256H97.2359L96.3048 7.79185L87.0462 7.82662Z" fill="#3AC36C"/>
<path d="M11.6271 7.91935L10.4632 10.0231H18.75L17.8364 13.0251L9.44483 13.0483C7.90852 18.7394 5.6797 19.1624 0 18.7162L4.79516 4.37256H21.3687L20.4318 7.79185L11.6271 7.91935Z" fill="#3AC36C"/>
<path d="M225 4.37256C222.765 7.69912 218.028 10.5968 215.84 13.7148C214.973 14.9492 214.915 16.3343 213.903 17.4354C212.011 19.4928 209.206 18.5192 206.687 18.7162C206.867 16.711 208.141 15.4824 208.013 13.2975C207.862 10.6084 205.697 7.27026 205.814 4.37256H212.576L213.67 8.71911L217.807 4.37256H225Z" fill="#3AC36C"/>
<path d="M75.0001 15.239L73.8653 18.7452C70.6995 18.2526 61.3187 20.2172 60.2363 16.23L64.1004 4.37256H71.5143C72.0322 4.86517 68.1739 12.886 68.0867 14.2421C68.0634 14.613 68.4184 15.239 68.6802 15.239H75.0001Z" fill="#3AC36C"/>
<path d="M200.582 15.239L199.424 18.7336C195.804 18.1888 188.466 20.165 186.156 16.7805C185.69 16.1025 185.777 15.9692 185.923 15.2274C186.196 13.8075 188.739 7.05003 189.461 5.67072C189.705 5.1955 189.88 4.70869 190.334 4.37256H197.096L193.779 14.3407L194.262 15.239H200.582Z" fill="#3AC36C"/>
<path d="M126.886 4.37253C125.332 7.46149 123.528 17.8469 120.042 18.6234C118.523 18.9654 116.684 18.5829 115.119 18.7162C114.607 18.2583 119.443 6.38933 119.897 5.87933C121.602 3.96685 124.587 4.36674 126.886 4.37253Z" fill="#3AC36C"/>
</g>
<defs>
<clipPath id="clip0_1_2273">
<rect width="225" height="24" fill="white"/>
</clipPath>
</defs>
</svg>
