<svg width="402" height="274" viewBox="0 0 402 274" fill="none" xmlns="http://www.w3.org/2000/svg">
<g clip-path="url(#clip0_1_1779)">
<path d="M164.769 13.1135L186.332 34.0592L215.279 25.8123L222.683 -3.36243L201.12 -24.3082L172.173 -16.0612L164.769 13.1135ZM188.036 40.6477L181.586 66.1399L206.88 58.9529L213.33 33.4608L188.036 40.6477ZM199.397 -30.8604L205.847 -56.3525L180.553 -49.1656L174.103 -23.6734L199.397 -30.8604ZM222.822 23.6876L248.116 16.5006L254.584 -9.01001L229.29 -1.82303L222.822 23.6876ZM271.56 71.0312L296.854 63.8443L303.304 38.3522L278.01 45.5391L271.56 71.0312ZM271.401 44.0168L249.839 23.0711L220.891 31.318L213.488 60.4927L235.05 81.4385L263.998 73.1915L271.401 44.0168ZM236.772 87.991L230.322 113.483L255.635 106.314L262.085 80.8219L236.772 87.991ZM230.146 86.4872L208.583 65.5414L179.636 73.7884L172.232 102.963L193.795 123.909L222.742 115.662L230.146 86.4872ZM195.517 130.461L189.066 155.953L214.361 148.766L220.811 123.274L195.517 130.461ZM172.092 75.9133L146.798 83.1003L140.33 108.611L165.624 101.424L172.092 75.9133ZM123.354 28.5697L98.0601 35.7566L91.61 61.2487L116.904 54.0618L123.354 28.5697ZM123.513 55.5841L145.075 76.5298L174.023 68.2829L181.426 39.1082L159.864 18.1624L130.916 26.4094L123.513 55.5841ZM158.142 11.6099L164.592 -13.8822L139.279 -6.71314L132.829 18.779L158.142 11.6099ZM137.575 -13.3019L166.522 -21.5488L173.926 -50.7235L152.363 -71.6693L123.389 -63.3946L115.985 -34.2199L137.548 -13.2741L137.575 -13.3019ZM215.155 -93.1666L193.592 -114.112L164.645 -105.865L157.241 -76.6907L178.804 -55.745L207.751 -63.9919L215.155 -93.1666ZM263.921 -45.7954L242.358 -66.7411L213.411 -58.4942L206.007 -29.3194L227.57 -8.37371L256.517 -16.6206L263.921 -45.7954ZM312.659 1.54831L291.096 -19.3974L262.149 -11.1505L254.745 18.0242L276.308 38.97L305.255 30.723L312.659 1.54831ZM361.415 48.9104L339.853 27.9646L310.905 36.2116L303.502 65.3863L325.064 86.332L354.012 78.0851L361.415 48.9104ZM320.161 91.38L298.598 70.4343L269.651 78.6812L262.247 107.856L283.809 128.802L312.757 120.555L320.161 91.38ZM278.906 133.85L257.343 112.904L228.396 121.151L220.992 150.326L242.555 171.271L271.529 162.997L278.906 133.85ZM179.763 192.769L201.326 213.714L230.273 205.467L237.677 176.293L216.114 155.347L187.167 163.594L179.763 192.769ZM130.997 145.397L152.559 166.343L181.507 158.096L188.911 128.921L167.348 107.976L138.4 116.223L130.997 145.397ZM82.2591 98.0537L103.822 118.999L132.769 110.753L140.173 81.5778L118.61 60.6321L89.6627 68.879L82.2591 98.0537ZM33.5024 50.6917L55.0649 71.6374L84.0125 63.3904L91.4161 34.2157L69.8536 13.27L40.906 21.5169L33.5024 50.6917ZM74.7572 8.22203L96.3197 29.1677L125.267 20.9208L132.671 -8.2539L111.108 -29.1996L82.1608 -20.9527L74.7572 8.22203Z" fill="#E3FFEE" fill-opacity="0.3"/>
</g>
<defs>
<clipPath id="clip0_1_1779">
<rect width="363" height="281" fill="white" transform="matrix(-0.717291 -0.696774 -0.696774 0.717291 429 71.9287)"/>
</clipPath>
</defs>
</svg>
