<svg width="402" height="240" viewBox="0 0 402 240" fill="none" xmlns="http://www.w3.org/2000/svg">
<g clip-path="url(#clip0_11_5783)">
<path d="M238.776 194.072L216.222 213.945L187.709 204.302L181.731 174.802L204.286 154.928L232.798 164.572L238.776 194.072ZM214.199 220.443L219.403 246.219L194.488 237.811L189.284 212.036L214.199 220.443ZM206.325 148.468L201.121 122.692L226.036 131.099L231.24 156.875L206.325 148.468ZM180.278 201.813L155.363 193.406L150.142 167.611L175.057 176.019L180.278 201.813ZM129.298 246.734L104.383 238.326L99.179 212.551L124.094 220.958L129.298 246.734ZM130.769 219.759L153.323 199.885L181.836 209.529L187.814 239.028L165.259 258.902L136.746 249.259L130.769 219.759ZM163.221 265.363L168.425 291.139L143.491 282.748L138.286 256.973L163.221 265.363ZM169.912 264.183L192.467 244.309L220.98 253.953L226.957 283.453L204.403 303.326L175.89 293.683L169.912 264.183ZM202.365 309.787L207.569 335.563L182.654 327.156L177.449 301.38L202.365 309.787ZM228.411 256.442L253.326 264.849L258.548 290.644L233.632 282.236L228.411 256.442ZM279.391 211.521L304.306 219.929L309.511 245.704L284.595 237.297L279.391 211.521ZM277.921 238.496L255.366 258.37L226.854 248.726L220.876 219.227L243.43 199.353L271.943 208.996L277.921 238.496ZM245.469 192.892L240.265 167.117L265.199 175.507L270.403 201.282L245.469 192.892ZM267.222 169.009L238.709 159.365L232.731 129.865L255.286 109.992L283.824 119.664L289.802 149.164L267.247 169.038L267.222 169.009ZM193.613 85.4695L216.167 65.596L244.68 75.2393L250.658 104.739L228.103 124.613L199.59 114.969L193.613 85.4695ZM142.603 130.416L165.157 110.542L193.67 120.186L199.648 149.686L177.093 169.559L148.581 159.916L142.603 130.416ZM91.6229 175.336L114.177 155.463L142.69 165.106L148.668 194.606L126.113 214.48L97.6006 204.836L91.6229 175.336ZM40.6231 220.274L63.1776 200.4L91.6904 210.044L97.6681 239.544L75.1136 259.417L46.6007 249.774L40.6231 220.274ZM79.7662 264.697L102.321 244.824L130.834 254.467L136.811 283.967L114.257 303.841L85.7438 294.197L79.7662 264.697ZM118.909 309.121L141.464 289.247L169.977 298.891L175.954 328.391L153.4 348.264L124.861 338.592L118.909 309.121ZM215.073 372.786L192.518 392.66L164.006 383.017L158.028 353.517L180.582 333.643L209.095 343.287L215.073 372.786ZM266.083 327.84L243.528 347.714L215.015 338.07L209.038 308.57L231.592 288.697L260.105 298.34L266.083 327.84ZM317.063 282.92L294.508 302.793L265.995 293.15L260.018 263.65L282.572 243.776L311.085 253.42L317.063 282.92ZM368.063 237.982L345.508 257.856L316.995 248.212L311.017 218.712L333.572 198.839L362.085 208.482L368.063 237.982ZM328.919 193.558L306.365 213.432L277.852 203.789L271.874 174.289L294.429 154.415L322.942 164.059L328.919 193.558Z" fill="#4B4B4B" fill-opacity="0.3"/>
</g>
<defs>
<clipPath id="clip0_11_5783">
<rect width="363" height="281" fill="white" transform="translate(-28 239.982) rotate(-41.3844)"/>
</clipPath>
</defs>
</svg>
